<?xml version="1.0" standalone="no"?>
<!DOCTYPE svg PUBLIC "-//W3C//DTD SVG 20010904//EN"
 "http://www.w3.org/TR/2001/REC-SVG-20010904/DTD/svg10.dtd">
<svg version="1.0" xmlns="http://www.w3.org/2000/svg"
 width="675.000000pt" height="675.000000pt" viewBox="0 0 675.000000 675.000000"
 preserveAspectRatio="xMidYMid meet">
<metadata>
Created by potrace 1.14, written by Peter Selinger 2001-2017
</metadata>
<g transform="translate(0.000000,675.000000) scale(0.100000,-0.100000)"
fill="#000000" stroke="none">
<path d="M0 3375 l0 -3375 3375 0 3375 0 0 3375 0 3375 -3375 0 -3375 0 0
-3375z m3750 2999 c555 -63 1070 -275 1520 -625 186 -144 430 -399 572 -596
292 -406 463 -830 545 -1353 26 -165 26 -655 0 -820 -95 -605 -319 -1102 -693
-1539 -499 -582 -1184 -947 -1944 -1035 -283 -33 -660 -17 -940 40 -585 120
-1092 394 -1520 823 -248 248 -409 469 -561 767 -215 423 -319 864 -319 1354
0 691 209 1297 640 1860 109 142 391 419 542 531 446 333 935 530 1468 593
162 19 524 20 690 0z"/>
<path d="M3201 6309 c-606 -44 -1190 -278 -1658 -666 -112 -93 -320 -303 -409
-413 -721 -890 -854 -2124 -340 -3151 145 -288 309 -513 550 -755 242 -241
468 -406 755 -550 925 -462 2007 -406 2886 149 343 217 692 572 913 927 457
735 562 1639 287 2465 -190 572 -548 1064 -1040 1432 -432 323 -977 522 -1536
562 -161 12 -241 12 -408 0z m359 -1253 c0 -13 -18 -43 -41 -70 -44 -50 -45
-67 -4 -48 35 16 35 16 23 -18 -16 -48 2 -63 54 -44 52 18 78 18 78 -1 0 -22
-37 -55 -62 -55 -43 0 -52 -15 -23 -38 14 -11 31 -22 37 -24 16 -6 -7 -45 -35
-60 -12 -6 -49 -17 -82 -23 l-60 -11 40 -12 c22 -7 61 -12 88 -12 96 0 34 -43
-90 -62 l-78 -12 70 -16 c39 -8 66 -18 60 -21 -26 -16 -94 -32 -159 -38 l-71
-7 67 -23 c103 -34 97 -44 -23 -39 -86 3 -114 8 -162 31 -60 27 -137 82 -137
97 0 4 14 13 30 19 43 14 47 35 15 79 -54 72 -90 103 -162 138 -40 20 -73 43
-73 51 0 21 44 61 76 69 15 4 101 2 191 -5 172 -12 209 -7 242 32 17 21 31 22
31 2 0 -42 39 1 59 66 15 47 46 79 76 79 20 0 25 -5 25 -24z m-1995 -305 c66
-28 134 -58 150 -66 17 -7 62 -27 100 -44 l70 -30 7 -55 c4 -31 13 -66 19 -78
10 -20 200 -207 331 -326 l46 -43 33 61 c19 33 40 60 48 60 7 0 39 -16 71 -35
65 -40 70 -41 70 -20 0 8 6 15 14 15 8 0 162 -33 343 -73 292 -66 333 -78 374
-106 100 -71 265 -69 374 3 44 29 87 41 379 106 310 68 331 71 343 54 12 -16
16 -15 68 20 31 20 64 36 73 34 9 -2 30 -27 46 -56 l28 -54 87 83 c47 46 125
121 173 166 91 88 118 134 118 201 0 35 4 40 38 54 20 9 126 54 234 101 132
57 195 80 189 69 -120 -234 -226 -422 -237 -423 -8 -1 -18 -3 -24 -4 -5 -1
-17 -3 -25 -4 -12 -1 -15 -21 -17 -108 l-2 -108 -3 108 -4 107 -34 0 c-55 0
-66 -9 -106 -97 -58 -126 -90 -166 -218 -267 -184 -147 -238 -250 -248 -478
-6 -132 1 -183 53 -363 91 -313 93 -445 11 -599 -31 -59 -130 -176 -149 -176
-5 0 -6 6 -2 13 5 8 2 8 -9 -2 -20 -16 -23 -26 -4 -15 8 5 8 2 -2 -9 -15 -19
-36 -23 -25 -5 4 7 3 8 -5 4 -6 -4 -9 -12 -6 -17 4 -5 -1 -12 -10 -15 -19 -8
-8 -23 37 -56 l30 -20 66 45 c193 133 302 311 302 497 l0 78 63 35 c79 45 82
41 81 -113 0 -98 -5 -127 -28 -195 -47 -138 -136 -263 -263 -370 -76 -65 -58
-67 47 -5 192 113 329 277 396 475 23 68 28 102 32 220 4 128 6 141 26 157 11
10 26 18 32 18 18 0 39 -146 38 -260 -2 -210 -76 -373 -249 -545 -90 -91 -179
-151 -289 -199 -67 -29 -74 -35 -60 -47 14 -11 26 -10 83 10 465 160 723 479
723 891 0 140 -16 217 -80 397 -99 277 -203 640 -216 748 -3 28 7 -6 23 -75
34 -144 109 -395 177 -590 75 -217 93 -286 103 -386 41 -455 -221 -817 -719
-991 l-85 -30 -150 156 -150 156 -227 -77 c-320 -109 -419 -162 -569 -305
l-77 -74 -71 70 c-80 79 -207 167 -306 212 -38 17 -160 62 -272 99 -236 80
-285 104 -352 175 -90 95 -134 216 -133 370 0 109 12 182 57 340 51 181 59
229 59 360 1 188 -39 307 -139 405 -41 40 -52 57 -45 69 6 13 -30 56 -163 194
-95 98 -175 178 -180 177 -14 0 94 -201 131 -242 20 -22 71 -67 112 -98 145
-110 202 -191 242 -338 31 -115 29 -287 -5 -407 -92 -330 -111 -441 -94 -555
17 -124 132 -291 245 -357 l44 -26 -153 -153 -152 -152 -71 25 c-476 169 -736
488 -736 900 0 145 13 204 101 463 151 443 207 669 211 850 l3 105 -50 5 -50
5 -70 130 c-39 72 -92 170 -119 219 -26 49 -42 86 -34 83 7 -2 67 -28 133 -56z
m1298 46 c18 -8 38 -21 46 -30 7 -10 26 -17 41 -17 22 0 42 -15 89 -67 34 -37
61 -73 61 -79 0 -6 -18 -18 -39 -26 l-39 -16 -91 52 c-50 28 -87 52 -83 54 4
1 40 -9 80 -22 81 -28 86 -19 12 19 -73 37 -127 47 -167 30 -27 -11 -35 -22
-45 -59 -7 -25 -18 -46 -24 -46 -19 0 -54 55 -61 94 -13 81 125 152 220 113z
m-215 -332 c1 -1 -4 -14 -11 -28 l-14 -26 -34 35 -34 35 45 -7 c25 -4 46 -8
48 -9z m1601 -25 c-18 -22 -33 -40 -34 -40 0 0 -1 8 -1 18 -1 9 -4 25 -8 34
-6 13 -1 17 26 21 18 2 37 5 41 5 4 1 -7 -16 -24 -38z m-1762 -16 c19 -5 21
-9 12 -26 -6 -11 -8 -26 -5 -34 8 -21 4 -18 -39 26 -38 38 -38 40 -15 40 14 0
35 -3 47 -6z m1908 -35 c-38 -38 -40 -39 -43 -17 -2 13 -8 28 -13 35 -12 13 7
20 61 22 l34 1 -39 -41z m-1499 2 c14 -1 26 -11 34 -31 11 -26 47 -59 54 -48
1 2 7 15 14 31 15 35 33 34 54 -3 21 -37 33 -38 50 -2 17 35 63 43 73 13 6
-18 43 -48 49 -39 1 2 7 15 13 29 13 31 58 41 185 40 95 -1 148 -9 148 -24 0
-12 30 -47 40 -47 4 0 13 14 20 30 12 29 50 43 50 18 0 -14 30 -48 42 -48 4 0
-1 9 -13 21 -25 25 -21 43 11 47 20 3 22 1 16 -25 l-7 -28 16 23 c20 27 52 29
60 2 6 -18 43 -47 49 -38 1 2 7 15 14 31 8 19 19 27 37 27 14 0 25 5 25 10 0
6 27 10 62 10 37 0 58 -4 53 -9 -6 -5 -103 -59 -218 -121 l-207 -112 -51 22
c-93 39 -199 36 -314 -10 -28 -11 -41 -6 -245 105 -118 65 -219 121 -225 127
-6 6 9 7 40 4 28 -3 60 -5 71 -5z m104 -16 c0 -2 -5 -15 -12 -29 -9 -20 -14
-23 -25 -15 -23 20 -16 49 12 49 14 0 25 -2 25 -5z m96 -17 c-3 -13 -6 -26 -6
-30 0 -16 -20 -7 -30 12 -13 25 -5 40 22 40 16 0 19 -5 14 -22z m144 15 c-1
-5 -6 -18 -13 -31 -13 -23 -13 -23 -31 -3 -10 11 -15 25 -11 30 7 12 55 15 55
4z m390 -6 c0 -7 -6 -21 -13 -31 -12 -16 -14 -16 -26 -2 -7 9 -11 23 -7 31 7
18 46 20 46 2z m240 8 c0 -2 -5 -15 -12 -29 -9 -20 -14 -23 -25 -15 -23 20
-16 49 12 49 14 0 25 -2 25 -5z m-875 -152 c59 -34 41 -28 -96 28 -68 28 -139
58 -158 65 -32 14 -33 15 -15 28 16 12 30 8 124 -42 58 -31 123 -66 145 -79z
m1139 107 c-13 -11 -306 -131 -311 -127 -2 2 61 38 139 79 114 61 147 74 162
66 10 -5 14 -13 10 -18z m-1252 -122 c125 -51 226 -93 224 -95 -3 -3 -448 96
-533 118 -24 7 -43 14 -43 18 0 5 85 40 120 50 3 1 107 -40 232 -91z m1359 73
c24 -10 53 -21 63 -25 10 -4 17 -9 14 -11 -7 -7 -570 -136 -574 -132 -3 3 433
184 447 186 4 1 26 -7 50 -18z m-1755 -65 l-1 -33 -45 30 c-25 17 -47 32 -49
34 -2 1 18 3 46 3 l50 0 -1 -34z m1973 31 c-2 -2 -26 -18 -52 -35 -43 -29 -48
-30 -42 -12 4 12 1 27 -5 35 -11 13 -4 15 45 15 32 0 56 -1 54 -3z m562 -148
c10 0 11 -2 2 -6 -7 -2 -13 -12 -13 -21 0 -11 -8 -17 -25 -17 -15 0 -23 5 -21
11 2 6 -1 17 -7 23 -8 8 -7 11 6 11 9 0 17 8 17 18 1 16 1 16 14 0 7 -10 19
-18 27 -19z m34 -159 c10 0 11 -5 3 -22 -11 -23 -62 -34 -54 -12 2 6 -1 17 -7
23 -8 8 -7 11 6 11 9 0 17 8 17 18 1 16 1 16 11 0 5 -10 16 -18 24 -18z m-166
-24 c-4 -5 -5 -14 -3 -21 3 -7 -4 -11 -18 -11 -29 1 -40 34 -18 56 13 13 17
13 31 0 9 -8 13 -19 8 -24z m58 -146 c12 0 13 -3 3 -15 -6 -8 -9 -18 -6 -23 3
-6 -5 -9 -18 -8 -25 1 -55 46 -31 46 7 0 16 8 20 18 8 16 8 16 12 0 3 -10 11
-18 20 -18z m155 -28 c-3 -17 -8 -20 -17 -12 -10 8 -15 7 -21 -2 -6 -9 -10 -5
-14 12 -4 16 -1 30 9 40 14 14 17 14 31 0 9 -8 14 -25 12 -38z m-463 4 c-4 -5
-5 -16 -1 -25 5 -14 3 -14 -10 -3 -13 11 -18 11 -24 0 -6 -9 -10 -6 -14 12 -3
15 0 31 8 41 13 15 16 15 32 0 9 -9 14 -20 9 -25z m159 13 c10 0 12 -3 5 -6
-7 -2 -13 -12 -13 -21 0 -11 -8 -17 -25 -17 -15 0 -23 5 -21 11 2 6 -1 17 -7
23 -8 8 -7 11 6 11 9 0 17 8 17 18 1 16 1 16 11 0 5 -10 18 -18 27 -19z m360
-150 c10 0 12 -3 5 -6 -7 -2 -13 -13 -13 -22 0 -25 -43 -22 -50 4 -7 25 21 57
33 38 4 -7 16 -13 25 -14z m-161 -23 c-6 -12 -21 -22 -33 -22 -13 -1 -21 2
-18 8 3 5 0 15 -6 23 -10 12 -9 15 4 15 9 0 16 4 16 9 0 5 10 4 23 -2 19 -9
22 -14 14 -31z m-310 14 c12 0 13 -3 3 -15 -6 -8 -9 -19 -5 -25 4 -6 -3 -9
-17 -7 -13 1 -28 11 -33 22 -9 16 -7 22 10 31 11 5 22 6 23 2 2 -4 11 -8 19
-8z m143 10 c0 -5 6 -10 14 -10 25 0 -4 -45 -30 -46 -13 -1 -21 2 -18 8 3 5 0
15 -6 23 -10 12 -9 15 4 15 9 0 16 5 16 10 0 6 5 10 10 10 6 0 10 -4 10 -10z
m-230 -160 c16 0 17 -3 7 -24 -14 -30 -50 -31 -63 -2 -7 17 -5 23 11 32 11 5
22 6 23 2 2 -4 12 -8 22 -8z m146 0 c8 0 14 -4 14 -10 0 -5 -5 -10 -11 -10 -6
0 -8 -9 -4 -22 6 -18 5 -20 -5 -11 -7 6 -18 9 -24 7 -6 -2 -16 6 -21 18 -8 19
-6 25 10 34 11 5 22 6 23 2 2 -4 10 -8 18 -8z m150 -27 c-6 -13 -16 -21 -22
-19 -6 3 -17 -1 -24 -7 -10 -9 -11 -7 -5 11 4 13 2 22 -4 22 -6 0 -11 5 -11
10 0 6 7 10 15 10 8 0 15 4 15 9 0 5 10 4 23 -2 20 -9 22 -14 13 -34z m149 9
c-3 -8 -5 -18 -5 -24 0 -6 -6 -8 -14 -5 -7 3 -19 0 -25 -6 -8 -8 -11 -7 -11 5
0 9 -3 23 -6 32 -4 11 -1 16 10 16 9 0 16 5 16 10 0 6 8 5 20 -2 11 -7 18 -19
15 -26z m147 -20 c-3 -17 -8 -20 -17 -12 -10 8 -15 7 -21 -2 -6 -9 -10 -6 -14
12 -4 15 0 30 10 40 13 13 17 13 30 0 9 -8 14 -25 12 -38z m-107 -132 c10 0
11 -5 2 -22 -11 -25 -62 -37 -53 -13 2 7 -1 18 -7 24 -8 8 -7 11 6 11 9 0 17
8 17 18 1 16 1 16 11 0 5 -10 16 -18 24 -18z m150 0 c10 0 11 -5 2 -22 -11
-25 -62 -37 -53 -13 2 7 -1 18 -7 24 -8 8 -7 11 6 11 9 0 17 8 17 18 1 16 1
16 11 0 5 -10 16 -18 24 -18z m-615 10 c0 -5 7 -10 16 -10 13 0 14 -3 4 -15
-6 -8 -9 -18 -6 -23 3 -5 -8 -9 -24 -9 -16 0 -27 4 -24 9 3 5 0 15 -6 23 -10
12 -9 15 4 15 9 0 16 5 16 10 0 6 5 10 10 10 6 0 10 -4 10 -10z m150 0 c0 -5
7 -10 16 -10 13 0 14 -3 4 -15 -6 -8 -9 -18 -6 -23 3 -5 -8 -9 -24 -9 -16 0
-27 4 -24 9 3 5 0 15 -6 23 -10 12 -9 15 4 15 9 0 16 5 16 10 0 6 5 10 10 10
6 0 10 -4 10 -10z m167 -34 c-11 -23 -62 -33 -53 -11 2 7 -1 18 -7 24 -8 8 -7
11 6 11 9 0 17 4 17 9 0 5 10 4 23 -2 19 -9 22 -14 14 -31z m-109 -146 c12 0
13 -3 5 -11 -6 -6 -9 -17 -7 -24 9 -24 -42 -12 -53 13 -9 17 -8 22 3 22 8 0
18 8 22 18 6 16 7 16 10 0 2 -10 11 -18 20 -18z m-168 10 c0 -5 7 -10 16 -10
13 0 14 -3 4 -15 -6 -8 -9 -18 -6 -23 3 -5 -8 -9 -24 -9 -16 0 -27 4 -24 9 3
5 0 15 -6 23 -10 12 -9 15 4 15 9 0 16 5 16 10 0 6 5 10 10 10 6 0 10 -4 10
-10z m-2236 -1008 c-82 -80 -217 -213 -301 -296 -84 -83 -156 -147 -160 -142
-9 9 589 595 601 588 5 -3 -58 -70 -140 -150z m2163 -146 c164 -162 296 -296
293 -299 -6 -6 -68 51 -389 365 -129 125 -227 228 -218 228 9 0 150 -132 314
-294z m-1897 244 c12 -8 -53 -77 -324 -345 -275 -272 -342 -333 -349 -320 -5
9 -6 20 -3 23 41 45 652 652 656 652 3 0 12 -5 20 -10z m1813 -318 c292 -291
326 -329 315 -345 -12 -15 -48 18 -348 318 -267 267 -332 337 -320 345 8 5 17
10 20 10 3 0 153 -148 333 -328z m-1547 275 c38 -14 109 -44 157 -68 l87 -43
0 -289 c0 -228 -3 -287 -12 -281 -7 4 -58 37 -113 74 -55 37 -105 69 -112 73
-7 5 -17 -11 -29 -45 -9 -29 -18 -54 -19 -56 -3 -4 -230 124 -310 175 -97 62
-175 123 -175 137 0 6 78 89 173 184 l172 174 55 -6 c30 -3 87 -16 126 -29z
m1278 -146 l178 -179 -53 -42 c-29 -23 -72 -55 -94 -70 -50 -34 -337 -200
-346 -200 -4 0 -11 15 -14 33 -19 85 -11 85 -147 -3 l-123 -80 -3 277 c-1 153
0 283 2 290 9 24 199 111 301 138 110 30 100 35 299 -164z m-405 -616 c39 -20
45 -40 15 -54 -20 -9 -28 -8 -40 4 -9 8 -19 15 -23 15 -17 0 -31 -26 -31 -58
0 -30 1 -32 16 -18 18 18 66 21 95 6 22 -12 49 -61 49 -89 0 -81 -93 -128
-155 -79 -63 49 -87 187 -44 242 35 45 73 55 118 31z m-728 -3 c13 -6 11 -24
-19 -150 l-34 -144 -26 7 c-15 4 -29 8 -31 10 -2 3 8 49 21 104 l25 99 -24 -9
c-13 -5 -33 -9 -43 -9 -30 0 -9 42 26 53 16 6 40 18 54 28 28 20 28 20 51 11z
m266 -47 c34 -23 40 -61 14 -96 -20 -27 -20 -31 -6 -45 36 -36 26 -100 -20
-130 -18 -12 -38 -15 -72 -11 -85 9 -120 84 -68 145 22 26 23 31 10 42 -16 13
-19 47 -9 75 16 42 101 53 151 20z m239 -6 c62 -58 57 -218 -7 -263 -34 -23
-88 -20 -116 6 -13 12 -23 27 -23 34 0 19 42 25 60 9 25 -22 49 -18 60 11 18
46 14 55 -17 39 -71 -37 -146 54 -113 136 25 60 107 74 156 28z"/>
<path d="M3003 4819 c-9 -9 -10 -16 -2 -26 15 -17 34 -17 49 2 16 19 30 19 30
0 0 -20 27 -30 43 -17 7 6 37 12 67 14 61 3 80 23 23 25 -21 1 -74 4 -118 8
-59 5 -83 4 -92 -6z"/>
<path d="M1800 4465 l-63 -64 39 -6 c71 -11 112 -39 241 -164 70 -69 149 -145
175 -169 l46 -44 17 32 17 33 -32 28 c-109 95 -343 315 -351 330 -5 10 -9 31
-9 48 0 16 -4 32 -8 35 -5 3 -37 -24 -72 -59z"/>
<path d="M4950 4512 c0 -36 -27 -91 -60 -122 -17 -16 -96 -88 -175 -160 -80
-72 -145 -133 -145 -136 0 -3 7 -19 16 -36 l16 -31 139 139 c76 76 139 134
139 129 0 -5 -61 -71 -135 -146 -128 -128 -135 -138 -125 -161 11 -22 7 -29
-42 -79 -104 -107 -143 -234 -135 -439 4 -91 12 -152 31 -222 71 -265 77 -298
83 -398 9 -169 -22 -281 -107 -390 l-51 -65 51 55 c59 64 113 170 130 254 20
97 2 225 -63 451 -49 169 -57 213 -57 321 0 171 45 318 125 412 20 23 74 71
119 106 109 86 166 149 200 221 16 33 37 78 48 99 l20 39 -23 -6 c-19 -5 -20
-4 -8 7 19 18 75 36 110 36 16 0 29 4 29 8 0 4 -29 37 -65 72 -55 55 -65 61
-65 42z"/>
<path d="M1767 4253 c-11 -180 -68 -408 -198 -790 -119 -349 -112 -318 -113
-503 -1 -143 2 -175 22 -243 88 -304 321 -525 694 -657 56 -21 68 -22 82 -11
15 12 8 18 -57 46 -245 107 -459 342 -517 570 -14 56 -20 110 -20 194 0 102
17 221 33 237 3 3 18 -2 34 -11 l28 -16 0 -127 c0 -151 16 -218 79 -347 56
-113 141 -215 247 -294 77 -58 196 -127 205 -118 2 2 -25 27 -60 56 -204 165
-320 424 -286 637 6 38 12 70 14 71 2 2 32 -13 67 -33 l64 -37 1 -91 c0 -73 6
-104 27 -158 35 -90 91 -171 168 -243 61 -55 158 -125 177 -125 4 0 23 15 40
33 l32 33 -55 39 c-143 98 -228 257 -227 425 0 98 17 186 72 377 66 227 72
341 29 510 -35 141 -80 202 -236 327 -118 94 -134 113 -208 255 -50 96 -50 96
-91 99 l-41 3 -6 -108z m121 -154 c10 0 12 -3 5 -6 -7 -2 -13 -13 -13 -22 0
-25 -43 -22 -50 4 -7 25 21 57 33 38 4 -7 16 -13 25 -14z m-43 -159 c10 0 11
-5 2 -22 -11 -25 -62 -37 -53 -13 2 7 -1 18 -7 24 -8 8 -7 11 6 11 9 0 17 8
17 18 1 16 1 16 11 0 5 -10 16 -18 24 -18z m165 -10 c10 0 10 -3 0 -15 -6 -8
-9 -18 -6 -23 3 -5 -8 -9 -23 -8 -16 1 -27 5 -24 9 3 4 -1 14 -7 22 -10 12 -9
15 4 15 9 0 16 8 16 18 1 16 1 16 14 0 7 -10 19 -18 26 -18z m-207 -154 c4 4
1 -5 -6 -20 -7 -14 -17 -24 -23 -22 -6 3 -17 -1 -24 -7 -10 -9 -12 -8 -7 5 3
10 2 20 -4 24 -6 4 -3 13 8 24 15 15 20 16 34 4 9 -8 19 -11 22 -8z m127 4 c0
-5 7 -10 16 -10 13 0 14 -3 4 -15 -6 -8 -9 -18 -6 -23 3 -5 -8 -9 -24 -9 -16
0 -27 4 -24 9 3 5 0 15 -6 23 -10 12 -9 15 4 15 9 0 16 5 16 10 0 6 5 10 10
10 6 0 10 -4 10 -10z m178 -21 c10 0 12 -3 5 -6 -7 -2 -13 -12 -13 -21 0 -11
-8 -17 -25 -17 -16 0 -23 5 -21 12 3 7 1 15 -4 18 -5 3 -2 14 8 23 13 14 19
15 25 5 4 -7 16 -13 25 -14z m153 1 c12 0 12 -2 0 -9 -8 -5 -12 -15 -9 -22 4
-10 -3 -14 -22 -14 -19 0 -26 4 -22 14 3 7 -1 17 -9 22 -11 7 -11 9 4 9 9 0
17 8 17 18 1 16 1 16 14 0 7 -10 19 -18 27 -18z m-516 -150 c10 0 11 -5 2 -22
-11 -25 -62 -37 -53 -13 2 7 -1 18 -7 24 -8 8 -7 11 6 11 9 0 17 8 17 18 1 16
1 16 11 0 5 -10 16 -18 24 -18z m155 0 c15 0 16 -3 7 -22 -14 -31 -50 -32 -64
-2 -9 19 -8 24 3 24 8 0 18 8 22 18 6 16 7 16 10 0 2 -10 12 -18 22 -18z m150
-10 c15 0 16 -3 8 -22 -7 -14 -20 -23 -33 -23 -13 0 -26 9 -32 23 -9 17 -8 22
3 22 8 0 18 8 22 18 6 16 7 16 10 0 2 -10 12 -18 22 -18z m140 10 c0 -5 7 -10
16 -10 13 0 14 -3 4 -15 -6 -8 -9 -18 -6 -23 3 -6 -5 -9 -18 -8 -26 1 -55 46
-30 46 8 0 14 5 14 10 0 6 5 10 10 10 6 0 10 -4 10 -10z m-479 -170 c12 0 12
-2 0 -9 -8 -5 -11 -16 -8 -25 5 -13 3 -15 -12 -7 -12 7 -22 6 -31 -2 -10 -10
-11 -7 -5 11 4 13 2 22 -4 22 -6 0 -3 8 7 19 14 15 19 16 28 5 6 -8 17 -14 25
-14z m144 -8 c-3 -8 -5 -18 -5 -24 0 -6 -6 -8 -14 -5 -7 3 -19 0 -25 -6 -8 -8
-11 -7 -11 5 0 9 -3 23 -6 32 -4 11 -1 16 10 16 9 0 16 5 16 10 0 6 8 5 20 -2
11 -7 18 -19 15 -26z m142 18 c10 0 13 -6 9 -16 -3 -9 -6 -20 -6 -26 0 -6 -6
-8 -14 -5 -7 3 -19 0 -25 -6 -8 -8 -11 -7 -11 5 0 9 -3 23 -6 32 -4 11 -1 16
10 16 9 0 16 6 17 13 0 10 2 10 6 0 2 -7 12 -13 20 -13z m149 0 c8 0 14 -4 14
-10 0 -5 -5 -10 -11 -10 -6 0 -8 -9 -4 -22 6 -18 5 -20 -5 -11 -7 6 -18 9 -24
7 -6 -2 -16 6 -21 18 -8 19 -6 25 10 34 11 5 22 6 23 2 2 -4 10 -8 18 -8z
m151 -24 c-6 -12 -21 -22 -33 -22 -13 -1 -21 2 -18 8 3 5 0 15 -6 23 -10 12
-9 15 4 15 9 0 16 4 16 9 0 5 10 4 23 -2 19 -9 22 -14 14 -31z m-632 -146 c10
0 11 -5 2 -22 -11 -25 -62 -37 -53 -13 2 7 -1 18 -7 24 -8 8 -7 11 6 11 9 0
17 8 17 18 1 16 1 16 11 0 5 -10 16 -18 24 -18z m150 0 c10 0 11 -5 2 -22 -11
-25 -62 -37 -53 -13 2 7 -1 18 -7 24 -8 8 -7 11 6 11 9 0 17 8 17 18 1 16 1
16 11 0 5 -10 16 -18 24 -18z m150 0 c10 0 11 -5 3 -22 -14 -28 -58 -32 -58
-5 0 9 -6 17 -12 18 -7 0 -3 4 10 9 12 5 22 15 22 22 0 8 5 6 11 -4 5 -10 16
-18 24 -18z m143 0 c12 0 13 -3 5 -11 -6 -6 -9 -17 -7 -23 8 -22 -43 -11 -53
12 -9 17 -8 22 3 22 8 0 18 8 22 18 6 16 7 16 10 0 2 -10 11 -18 20 -18z m150
0 c12 0 13 -3 5 -11 -6 -6 -9 -17 -7 -23 8 -22 -43 -11 -53 12 -9 17 -8 22 3
22 8 0 18 8 22 18 6 16 7 16 10 0 2 -10 11 -18 20 -18z m-208 -160 c0 -5 7
-10 16 -10 13 0 14 -3 4 -15 -6 -8 -9 -18 -6 -23 3 -5 -8 -9 -24 -9 -16 0 -27
4 -24 9 3 5 0 15 -6 23 -10 12 -9 15 4 15 9 0 16 5 16 10 0 6 5 10 10 10 6 0
10 -4 10 -10z m168 -10 c12 0 13 -3 5 -11 -6 -6 -9 -18 -6 -25 8 -23 -40 -12
-52 11 -9 16 -7 22 10 31 11 5 22 6 23 2 2 -4 11 -8 20 -8z"/>
<path d="M3420 3928 c-28 -15 -39 -60 -20 -83 6 -8 34 -21 61 -30 52 -18 62
-37 29 -55 -24 -13 -56 -5 -64 15 -6 17 -46 21 -46 5 0 -6 11 -22 25 -35 48
-49 145 -23 145 38 0 34 -12 46 -66 66 -27 11 -49 25 -49 32 0 20 54 24 61 5
9 -23 44 -20 44 3 0 39 -74 63 -120 39z"/>
<path d="M3310 3845 c0 -82 -1 -85 -25 -91 -32 -8 -55 11 -55 46 0 15 -3 48
-6 74 -6 37 -11 46 -27 46 -18 0 -19 -5 -15 -82 6 -97 23 -118 93 -118 62 0
85 31 85 116 0 75 -6 94 -31 94 -17 0 -19 -8 -19 -85z"/>
<path d="M3577 3906 c-4 -11 3 -16 26 -18 l32 -3 -3 -70 c-2 -38 -6 -78 -8
-87 -4 -14 1 -18 20 -18 23 0 26 4 26 39 0 21 3 59 6 85 6 44 8 46 40 46 57 0
42 26 -18 34 -83 9 -115 7 -121 -8z"/>
<path d="M3002 3903 c-25 -3 -32 -8 -28 -21 2 -9 7 -44 11 -77 12 -118 11
-117 58 -110 96 14 125 47 114 128 -10 74 -47 93 -155 80z m106 -58 c27 -59 2
-115 -50 -115 -23 0 -25 5 -33 78 l-7 62 39 0 c33 0 42 -4 51 -25z"/>
<path d="M3757 3803 c-16 -59 -23 -101 -17 -107 15 -15 37 1 43 33 4 21 12 31
24 31 31 0 44 -16 50 -58 4 -28 11 -42 24 -45 16 -4 19 1 19 30 0 19 -4 43
-10 53 -8 15 -6 20 11 25 30 10 43 52 25 81 -13 19 -98 54 -134 54 -5 0 -21
-44 -35 -97z m122 32 c21 -20 6 -45 -26 -45 -44 0 -56 12 -43 44 8 22 14 26
33 21 12 -4 28 -13 36 -20z"/>
<path d="M2880 3867 c0 -7 7 -36 15 -63 8 -27 15 -53 15 -58 0 -4 -27 17 -60
47 -43 41 -65 54 -80 50 -11 -3 -20 -6 -20 -7 0 0 13 -44 28 -96 20 -67 33
-96 45 -98 21 -4 21 10 2 73 -8 27 -13 51 -11 53 2 2 29 -19 60 -47 59 -53 63
-56 83 -43 18 11 -37 196 -60 200 -10 2 -17 -3 -17 -11z"/>
<path d="M3996 3772 c5 -58 3 -75 -15 -110 -20 -40 -20 -42 -2 -51 16 -9 21
-4 36 29 14 31 33 49 82 77 57 33 62 39 47 50 -15 11 -25 9 -60 -12 l-43 -25
-7 47 c-6 45 -17 62 -37 63 -5 0 -5 -31 -1 -68z"/>
<path d="M2674 3802 c-14 -9 65 -191 84 -192 26 0 22 28 -18 113 -40 87 -45
93 -66 79z"/>
<path d="M2641 3664 c-1 -6 4 -35 9 -64 6 -30 7 -56 3 -59 -5 -3 5 -19 21 -34
16 -16 26 -22 23 -14 -3 8 0 23 8 33 10 15 10 21 0 31 -7 6 -15 10 -18 7 -3
-3 -14 21 -25 53 -11 32 -21 53 -21 47z"/>
<path d="M3362 3629 c-52 -26 -50 -35 4 -13 47 20 121 15 160 -11 26 -17 26
-18 8 -29 -27 -15 -190 -14 -205 2 -20 19 -73 14 -99 -8 -26 -22 -36 -25 -45
-10 -9 15 -25 12 -19 -4 4 -10 -2 -12 -20 -9 -28 6 -33 -5 -13 -26 8 -10 8
-12 0 -7 -6 3 -15 1 -19 -5 -4 -7 -3 -9 3 -6 6 4 16 1 22 -6 8 -11 5 -19 -12
-35 -13 -12 -27 -19 -31 -15 -4 5 -5 -4 -1 -20 4 -15 3 -27 -2 -27 -5 0 -19
-9 -31 -20 -12 -12 -22 -16 -22 -10 0 20 -19 10 -22 -12 -2 -16 -12 -24 -35
-29 -20 -4 -34 -2 -37 5 -2 6 -5 4 -5 -5 -1 -9 -11 -24 -23 -32 -23 -16 -22
-16 15 -16 21 -1 56 8 78 20 23 11 38 16 35 11 -7 -11 53 -55 107 -77 115 -48
336 -60 470 -26 76 20 148 51 178 77 18 16 31 6 43 -33 11 -36 -11 -63 -78
-94 -84 -39 -194 -59 -331 -59 -231 0 -415 62 -415 140 0 16 5 32 10 35 6 3
10 11 10 17 0 7 -6 6 -15 -2 -8 -7 -15 -29 -15 -49 -1 -20 -7 -47 -15 -61 -8
-14 -14 -40 -15 -58 0 -18 -7 -44 -16 -57 -13 -20 -19 -22 -39 -13 -25 11 -39
54 -21 61 15 6 12 65 -4 80 -10 10 -12 8 -7 -10 4 -18 1 -23 -14 -23 -13 0
-19 7 -19 23 -1 12 -8 33 -16 47 -10 16 -13 18 -8 5 14 -40 16 -73 5 -94 -10
-18 -9 -21 7 -21 30 0 40 -20 44 -85 l3 -60 -68 3 c-55 3 -69 7 -78 24 -6 11
-8 26 -5 34 8 21 -3 17 -24 -8 l-18 -23 -54 23 c-29 12 -58 22 -63 21 -6 0 1
-5 15 -11 25 -10 25 -10 4 -18 -45 -18 -36 -30 21 -30 l57 0 -22 -27 c-41 -55
-53 -74 -47 -80 13 -12 63 18 84 51 18 28 26 32 51 28 l30 -4 -28 -41 c-16
-23 -27 -44 -25 -46 10 -9 53 30 65 58 13 33 29 38 61 20 19 -10 19 -10 -1
-39 -11 -15 -46 -45 -77 -66 -62 -41 -58 -49 18 -42 35 3 39 1 39 -18 0 -34
10 -53 26 -47 20 8 54 67 54 96 0 16 7 26 19 30 29 7 51 -11 51 -44 0 -29 -1
-29 -24 -14 -21 14 -24 14 -30 0 -10 -26 -7 -35 9 -35 8 0 15 -5 15 -11 0 -6
-7 -8 -17 -5 -14 6 -12 2 5 -17 27 -28 28 -38 5 -31 -15 5 -15 3 1 -10 11 -9
16 -16 11 -16 -4 0 0 -9 10 -20 25 -28 37 -25 29 7 l-7 27 36 -23 c34 -21 37
-21 37 -5 0 14 3 15 12 6 17 -17 28 -15 28 6 1 15 2 15 15 -2 14 -19 15 -19
15 -2 0 15 3 16 15 6 12 -10 15 -9 15 6 0 15 2 16 9 5 10 -16 31 -6 31 15 0 8
-4 12 -10 9 -6 -4 -10 7 -10 25 0 18 4 29 10 25 6 -3 10 -1 10 5 0 6 10 4 25
-6 14 -9 25 -22 25 -29 0 -6 9 -20 20 -30 17 -16 20 -16 20 -2 0 13 5 14 29 6
17 -6 35 -17 41 -25 9 -10 17 -11 31 -3 13 6 19 6 19 -1 0 -12 60 -13 80 0 9
6 17 5 22 -3 5 -9 12 -9 24 -2 36 23 -2 38 -51 20 -19 -6 -19 -6 -2 8 9 8 17
20 17 26 0 7 4 10 9 7 5 -4 11 0 14 6 3 10 8 10 21 -1 15 -13 21 -11 49 17 25
25 29 34 19 44 -10 10 -14 8 -18 -9 -6 -20 -7 -20 -24 -3 -10 10 -23 26 -29
36 -6 12 -11 14 -11 5 0 -11 -3 -11 -17 0 -15 13 -16 12 -10 -9 4 -17 2 -22
-8 -18 -9 3 -12 0 -9 -9 4 -9 -2 -13 -19 -11 l-25 3 20 -34 c11 -18 15 -33 9
-33 -5 0 -14 8 -20 18 -5 9 -13 16 -18 15 -4 -1 -6 6 -5 15 3 13 1 14 -11 4
-7 -6 -16 -9 -20 -6 -3 3 -8 -4 -12 -15 -3 -12 -10 -19 -15 -16 -5 3 -13 -2
-18 -11 -9 -16 -11 -15 -21 5 -9 17 -16 19 -30 11 -14 -7 -20 -6 -25 6 -9 22
-8 24 9 24 8 0 15 7 15 15 0 8 5 15 10 15 7 0 9 14 5 38 -6 33 -5 35 8 20 8
-10 17 -15 20 -11 4 3 7 -1 7 -11 0 -9 5 -14 10 -11 6 3 11 -4 11 -17 1 -17 3
-18 6 -5 5 19 18 22 28 7 3 -5 12 -10 19 -10 18 0 29 42 13 52 -7 4 45 8 116
8 74 0 127 -4 127 -10 0 -20 -24 -60 -37 -60 -7 0 -13 -8 -13 -18 0 -20 30
-26 42 -8 5 7 8 6 8 -3 0 -11 3 -11 15 -1 12 10 15 9 15 -5 0 -13 3 -15 13 -7
9 8 16 1 29 -29 15 -35 9 -56 -7 -28 -4 6 -13 8 -20 5 -7 -2 -18 1 -25 7 -10
10 -10 8 -2 -9 14 -26 41 -49 49 -41 3 4 11 3 17 -2 14 -11 56 4 56 21 0 9 3
9 10 -2 7 -11 10 -8 10 15 l-1 30 -20 -25 c-20 -24 -21 -24 -35 -5 -12 16 -12
21 1 34 11 12 21 12 49 4 32 -10 37 -8 63 19 l28 29 19 -23 c10 -13 27 -34 38
-48 16 -20 21 -22 28 -10 6 8 10 30 10 48 l0 33 37 -26 c45 -30 56 -31 48 -5
-6 18 -2 20 52 20 l58 1 -39 24 -39 24 29 6 c57 13 69 17 92 31 35 22 26 33
-19 23 -63 -15 -159 -26 -159 -20 1 3 14 22 30 41 17 19 30 41 30 50 0 9 6 22
13 30 6 8 2 6 -10 -4 -13 -11 -40 -19 -66 -20 l-43 -2 -12 49 c-13 56 -3 87
28 87 26 0 25 12 0 28 -25 15 -26 48 -2 61 9 6 13 11 9 11 -4 0 -19 -7 -32
-16 -19 -12 -25 -13 -25 -3 0 7 -2 10 -5 7 -8 -8 6 -39 15 -33 4 2 12 -6 18
-20 10 -22 8 -25 -23 -35 -18 -6 -45 -22 -59 -35 l-27 -25 -19 33 c-11 17 -20
50 -20 72 -1 22 -7 51 -14 64 -7 13 -11 33 -8 43 2 11 -5 32 -17 48 -11 16
-21 40 -21 53 0 25 -27 57 -48 57 -7 0 -12 5 -12 12 0 7 -7 5 -18 -5 -21 -19
-126 -67 -147 -67 -7 0 -17 -4 -20 -10 -4 -6 1 -7 12 -4 16 5 16 4 -1 -10 -11
-9 -18 -16 -15 -17 34 -6 49 -4 45 7 -6 16 8 27 69 49 28 10 54 22 60 26 31
29 76 -15 57 -56 -14 -30 -100 -71 -187 -90 -89 -19 -262 -19 -358 -1 -132 25
-220 83 -196 128 16 30 31 31 90 5 81 -36 187 -57 288 -57 81 0 93 2 118 25
17 14 22 24 14 25 -8 0 -19 -8 -26 -17 -10 -13 -30 -17 -106 -17 -110 0 -193
16 -267 51 -62 29 -71 44 -48 78 l16 24 48 -24 c69 -34 128 -45 250 -46 112 0
188 16 249 51 l32 19 21 -26 c14 -18 20 -21 20 -10 0 9 -8 22 -17 29 -10 7
-25 26 -33 42 -8 16 -24 34 -35 40 -11 6 -31 19 -44 29 -13 9 -36 17 -52 17
-15 0 -31 5 -35 11 -10 16 -85 49 -114 49 -14 0 -44 -10 -68 -21z m-42 -64
c55 -19 153 -19 220 1 41 12 59 13 77 5 80 -36 -125 -94 -254 -71 -55 9 -114
30 -132 46 -7 6 21 34 34 34 7 0 32 -7 55 -15z m-51 -52 c50 -25 67 -28 161
-28 94 0 111 3 164 28 72 33 81 34 103 1 16 -25 16 -27 -8 -44 -33 -26 -127
-51 -213 -57 -128 -10 -298 31 -312 74 -3 10 -9 25 -13 33 -15 28 55 23 118
-7z m593 -411 c-15 -47 -146 -93 -309 -108 l-69 -7 -12 42 c-9 28 -18 41 -30
41 -26 0 -42 -20 -42 -52 0 -24 -4 -28 -30 -28 -16 0 -30 -4 -30 -10 0 -15
-36 -12 -50 5 -6 8 -9 18 -6 24 3 5 -1 11 -9 14 -10 4 -12 1 -9 -11 5 -14 3
-14 -10 2 -12 15 -18 17 -30 7 -25 -21 -165 16 -208 56 -19 17 -24 68 -9 92 8
13 20 10 75 -17 107 -52 181 -66 351 -66 170 -1 238 13 345 67 l65 33 13 -29
c9 -19 10 -38 4 -55z m-608 -110 c3 -5 -1 -9 -9 -9 -8 0 -12 4 -9 9 3 4 7 8 9
8 2 0 6 -4 9 -8z m620 -34 c36 -2 61 -8 64 -15 3 -10 -15 -13 -67 -13 -87 0
-117 -11 -123 -44 -3 -14 -1 -26 3 -26 5 0 9 -15 9 -33 0 -26 -4 -33 -20 -33
-11 0 -20 6 -20 14 0 7 -4 11 -9 8 -5 -3 -11 8 -13 24 -3 22 2 36 19 51 12 12
25 30 29 41 6 21 56 50 64 38 3 -5 32 -10 64 -12z m143 6 c-3 -3 -12 -4 -19
-1 -8 3 -5 6 6 6 11 1 17 -2 13 -5z m-277 -13 c0 -5 -7 -12 -16 -15 -24 -9
-814 -7 -814 2 0 5 3 12 7 15 10 11 823 8 823 -2z m370 -15 c0 -2 -25 -22 -55
-45 -30 -23 -55 -39 -55 -35 0 3 14 24 31 45 20 26 39 39 55 39 13 0 24 -2 24
-4z m-330 -30 c0 -3 -4 -8 -10 -11 -5 -3 -10 -1 -10 4 0 6 5 11 10 11 6 0 10
-2 10 -4z m-740 -107 c0 -46 -3 -59 -15 -59 -12 0 -15 13 -15 58 0 32 3 62 6
65 15 15 24 -8 24 -64z m107 28 c-1 -39 -10 -56 -31 -57 -4 0 -5 7 -2 15 3 8
9 22 12 30 5 11 2 14 -11 9 -15 -6 -16 -4 -7 13 6 11 9 22 7 25 -2 2 4 4 15 5
16 1 19 -5 17 -40z m88 13 c17 -34 19 -44 5 -35 -5 3 -10 -1 -10 -11 0 -13 -3
-14 -14 -5 -7 6 -21 9 -30 5 -24 -9 -20 12 6 30 l22 16 -24 0 c-24 1 -24 1 -6
15 28 21 33 19 51 -15z m45 1 c0 -14 -2 -14 -10 -1 -7 11 -10 11 -10 2 0 -7
-4 -10 -10 -7 -19 12 -11 33 10 28 11 -3 20 -13 20 -22z m560 -41 c0 -33 -4
-60 -10 -60 -6 0 -10 27 -10 60 0 33 4 60 10 60 6 0 10 -27 10 -60z m65 50
c-3 -5 -11 -10 -16 -10 -6 0 -7 5 -4 10 3 6 11 10 16 10 6 0 7 -4 4 -10z
m-798 -122 c-3 -8 -6 -5 -6 6 -1 11 2 17 5 13 3 -3 4 -12 1 -19z m-77 -18 c0
-15 -5 -12 -26 11 -19 22 -19 22 4 10 12 -6 22 -16 22 -21z"/>
<path d="M3277 3053 c-3 -5 3 -15 14 -22 18 -11 20 -10 17 5 -3 19 -23 30 -31
17z"/>
<path d="M3769 3637 c5 -5 7 -16 4 -23 -6 -17 33 -19 43 -2 4 7 3 8 -4 4 -7
-4 -12 -2 -12 3 0 6 5 11 12 11 22 0 -3 14 -28 16 -16 0 -22 -2 -15 -9z"/>
<path d="M3820 3590 c-8 -5 -11 -12 -7 -16 4 -4 13 -2 19 4 15 15 7 24 -12 12z"/>
<path d="M2738 3553 c6 -2 18 -2 25 0 6 3 1 5 -13 5 -14 0 -19 -2 -12 -5z"/>
<path d="M2787 3539 c7 -7 15 -10 18 -7 3 3 -2 9 -12 12 -14 6 -15 5 -6 -5z"/>
<path d="M4108 3509 c-23 -24 -45 -43 -49 -42 -4 2 -1 -10 7 -25 7 -15 14 -34
14 -42 1 -12 3 -11 11 3 10 17 57 23 75 10 5 -5 1 -1 -8 9 -20 18 -24 69 -7
100 20 37 -1 31 -43 -13z"/>
<path d="M2569 3513 l-24 -28 30 25 c17 14 32 26 34 28 2 1 0 2 -6 2 -5 0 -20
-12 -34 -27z"/>
<path d="M2931 3476 c2 -36 0 -68 -4 -72 -4 -4 -7 -11 -7 -16 0 -4 10 2 21 13
16 16 18 23 9 29 -8 5 -11 26 -9 59 2 28 0 51 -4 51 -5 0 -7 -29 -6 -64z"/>
<path d="M2832 3522 c13 -5 15 -11 8 -22 -5 -8 -9 -28 -9 -45 1 -28 2 -28 8 7
4 20 13 44 21 52 11 14 9 16 -16 15 -21 0 -24 -2 -12 -7z"/>
<path d="M2960 3526 c0 -2 15 -6 34 -8 19 -2 32 0 30 4 -5 8 -64 12 -64 4z"/>
<path d="M3945 3502 c-6 -27 -12 -32 -26 -28 -11 3 -28 9 -39 12 -16 5 -20 2
-20 -18 0 -13 7 -34 16 -46 15 -22 15 -23 -9 -17 -14 4 -34 2 -44 -4 -17 -10
-17 -10 2 -11 25 0 82 -34 118 -71 19 -18 34 -26 45 -21 15 6 14 7 -3 10 -32
6 -39 19 -50 87 l-11 65 36 0 c19 0 30 4 24 8 -6 4 -16 21 -22 37 l-10 30 -7
-33z"/>
<path d="M3042 3504 c-7 -8 -12 -22 -9 -32 3 -13 7 -10 16 12 13 33 11 40 -7
20z"/>
<path d="M2514 3477 c-20 -12 -19 -13 15 -42 l36 -29 -27 30 c-25 27 -26 30
-10 41 23 16 13 16 -14 0z"/>
<path d="M3060 3476 c0 -2 7 -7 16 -10 8 -3 12 -2 9 4 -6 10 -25 14 -25 6z"/>
<path d="M4008 3473 c6 -2 18 -2 25 0 6 3 1 5 -13 5 -14 0 -19 -2 -12 -5z"/>
<path d="M2809 3403 c-13 -16 -12 -17 4 -4 16 13 21 21 13 21 -2 0 -10 -8 -17
-17z"/>
<path d="M2569 3383 c6 -12 16 -25 22 -28 20 -13 15 0 -9 25 -22 23 -24 23
-13 3z"/>
<path d="M2780 3386 c0 -2 8 -10 18 -17 15 -13 16 -12 3 4 -13 16 -21 21 -21
13z"/>
<path d="M4198 3369 c12 -14 19 -28 16 -32 -3 -3 4 -3 16 0 21 6 21 6 4 16
-11 5 -28 17 -39 26 -16 13 -15 11 3 -10z"/>
<path d="M2641 3361 c-8 -6 -9 -11 -3 -15 6 -3 14 -1 17 5 9 14 2 20 -14 10z"/>
<path d="M3850 3304 c0 -15 23 -40 81 -84 57 -44 64 -45 40 -7 -14 22 -20 44
-16 56 5 16 2 18 -14 14 -12 -3 -36 4 -56 16 -29 17 -35 18 -35 5z"/>
<path d="M2781 3281 c-23 -32 -28 -50 -8 -29 15 17 39 58 33 58 -3 0 -14 -13
-25 -29z"/>
<path d="M4165 3290 c-10 -11 -29 -20 -42 -20 -35 0 -23 -23 15 -31 17 -3 29
-2 26 2 -3 5 -17 10 -32 10 -22 1 -23 3 -6 6 19 3 76 53 62 53 -3 0 -13 -9
-23 -20z"/>
<path d="M2657 3279 c12 -12 24 -21 27 -18 2 2 -8 13 -22 23 l-27 19 22 -24z"/>
<path d="M2814 3284 c-18 -14 -18 -15 4 -4 12 6 22 13 22 15 0 8 -5 6 -26 -11z"/>
<path d="M4218 3248 c-10 -22 -21 -37 -25 -35 -4 3 -9 -13 -10 -36 -1 -24 2
-35 7 -27 5 9 20 11 46 7 27 -4 34 -3 24 3 -8 5 -26 10 -39 10 -17 0 -21 3
-13 13 11 13 36 97 30 102 -2 2 -11 -15 -20 -37z"/>
<path d="M2696 3245 c-9 -26 -7 -32 5 -12 6 10 9 21 6 23 -2 3 -7 -2 -11 -11z"/>
<path d="M2736 3228 c10 -14 21 -24 23 -22 3 3 -6 15 -18 27 l-24 22 19 -27z"/>
<path d="M2951 3233 c-6 -10 -11 -12 -11 -5 0 6 -4 12 -10 12 -5 0 -7 -7 -4
-15 4 -8 1 -15 -6 -15 -6 0 -8 -4 -5 -10 3 -5 11 -10 16 -10 6 0 7 5 4 10 -3
6 -1 10 4 10 6 0 11 -5 11 -12 0 -22 14 3 16 27 1 30 -2 31 -15 8z"/>
<path d="M4096 3203 c-6 -14 -5 -15 5 -6 7 7 10 15 7 18 -3 3 -9 -2 -12 -12z"/>
<path d="M2676 3190 c-18 -6 -18 -7 4 -13 28 -7 32 -6 22 9 -4 6 -16 8 -26 4z"/>
<path d="M2601 3164 c-12 -15 -21 -34 -21 -43 1 -9 7 -2 14 15 8 18 22 37 33
43 10 6 13 11 6 11 -6 0 -21 -12 -32 -26z"/>
<path d="M3940 3156 c0 -2 7 -7 16 -10 8 -3 12 -2 9 4 -6 10 -25 14 -25 6z"/>
<path d="M3913 3127 c5 -17 37 -21 37 -5 0 8 -9 14 -21 15 -12 1 -19 -3 -16
-10z"/>
<path d="M2557 3074 c-10 -13 -14 -24 -10 -24 9 0 36 40 31 45 -2 2 -11 -8
-21 -21z"/>
<path d="M4280 3094 c1 -13 29 -48 34 -43 2 2 -4 15 -15 28 -10 13 -19 19 -19
15z"/>
<path d="M4250 3029 c-17 -13 -18 -17 -5 -10 33 17 51 31 40 31 -5 0 -21 -10
-35 -21z"/>
<path d="M4161 3003 c0 -10 3 -13 5 -7 3 6 17 9 32 6 34 -6 26 3 -10 12 -23 5
-28 3 -27 -11z"/>
<path d="M3619 2693 c-1 -5 -1 -11 0 -15 0 -5 -7 -8 -16 -8 -15 -1 -14 -4 6
-20 31 -26 51 -25 51 3 0 20 -38 57 -41 40z"/>
<path d="M2870 2531 c0 -144 18 -170 116 -171 46 0 68 5 85 19 22 18 24 28 27
131 l4 112 -29 -4 -28 -3 -3 -94 c-1 -52 -8 -101 -14 -108 -13 -16 -70 -17
-86 -1 -8 8 -12 47 -12 110 l0 98 -30 0 -30 0 0 -89z"/>
<path d="M3140 2601 c0 -16 8 -20 43 -23 l42 -3 3 -107 3 -108 29 0 30 0 0
110 0 110 40 0 c33 0 40 3 40 20 0 19 -7 20 -115 20 -107 0 -115 -1 -115 -19z"/>
<path d="M3412 2497 c-29 -67 -52 -126 -52 -130 0 -4 13 -7 28 -7 22 0 30 7
39 30 11 28 14 30 67 30 52 0 57 -2 71 -30 12 -23 22 -30 45 -30 l30 0 -26 58
c-14 31 -40 90 -57 130 -29 67 -33 72 -62 72 -30 0 -32 -4 -83 -123z m118 -24
c0 -8 -13 -13 -35 -13 -40 0 -41 3 -19 56 l16 39 19 -35 c10 -19 18 -41 19
-47z"/>
<path d="M3680 2490 l0 -130 25 0 c24 0 25 3 25 55 l0 55 60 0 60 0 0 -55 c0
-54 0 -55 30 -55 l30 0 0 130 0 130 -30 0 c-29 0 -30 -1 -30 -50 l0 -50 -60 0
-60 0 0 50 c0 47 -2 50 -25 50 l-25 0 0 -130z"/>
<path d="M3243 2301 c-13 -11 -23 -25 -23 -31 0 -10 3 -10 15 0 13 11 15 6 15
-39 0 -39 4 -51 15 -51 12 0 15 14 15 70 0 39 -3 70 -7 70 -5 -1 -18 -9 -30
-19z"/>
<path d="M3329 2304 c-10 -12 -10 -20 -1 -34 7 -12 8 -21 2 -25 -6 -3 -10 -17
-10 -30 0 -28 32 -49 60 -40 23 7 36 43 22 57 -6 6 -8 24 -5 40 9 44 -39 67
-68 32z m47 -15 c3 -6 1 -16 -5 -22 -9 -9 -14 -8 -21 3 -9 15 -4 30 10 30 5 0
12 -5 16 -11z m4 -68 c0 -11 -4 -22 -8 -25 -14 -9 -35 12 -29 28 9 23 37 20
37 -3z"/>
<path d="M3450 2276 c-38 -56 -38 -66 0 -66 20 0 30 -5 30 -15 0 -8 5 -15 10
-15 6 0 10 6 10 14 0 8 6 17 13 20 10 5 10 7 0 12 -8 3 -13 24 -13 50 0 24 -4
44 -10 44 -5 0 -23 -20 -40 -44z m30 -26 c0 -11 -7 -20 -15 -20 -18 0 -19 12
-3 28 16 16 18 15 18 -8z"/>
<path d="M3530 2305 c0 -8 3 -14 8 -14 4 1 17 1 28 0 l22 -1 -19 -37 c-21 -40
-25 -73 -9 -73 5 0 14 17 19 38 6 21 17 46 25 57 26 35 19 45 -29 45 -33 0
-45 -4 -45 -15z"/>
<path d="M2797 2163 c-4 -3 -7 -97 -7 -207 l0 -202 74 -36 74 -37 7 224 c4
123 5 228 1 233 -12 20 -134 41 -149 25z"/>
<path d="M3010 1963 c0 -82 -3 -184 -6 -228 l-6 -80 81 -52 81 -52 0 244 0
245 -70 35 c-38 19 -72 35 -75 35 -3 0 -5 -66 -5 -147z"/>
<path d="M2622 2013 l-91 -78 0 -82 -1 -83 80 -40 c44 -22 83 -40 88 -40 8 0
25 390 18 397 -2 2 -44 -32 -94 -74z"/>
<path d="M2770 1683 c0 -35 4 -40 52 -68 29 -16 56 -31 60 -33 5 -2 8 17 8 42
0 45 -1 46 -50 71 -27 14 -54 25 -60 25 -5 0 -10 -17 -10 -37z"/>
<path d="M3935 2159 c-22 -5 -43 -13 -46 -17 -4 -4 -4 -109 -1 -233 l7 -225
73 33 72 33 -2 207 -3 208 -30 2 c-16 1 -48 -3 -70 -8z"/>
<path d="M3738 2073 l-68 -37 0 -244 0 -244 28 18 c15 9 51 33 80 52 l52 35 0
62 c0 121 -13 395 -19 395 -3 0 -36 -17 -73 -37z"/>
<path d="M4117 1933 c4 -157 10 -243 19 -243 2 0 40 18 84 40 l80 40 0 58 c0
31 3 66 6 77 4 16 -15 38 -90 103 -52 45 -96 82 -98 82 -2 0 -2 -71 -1 -157z"/>
<path d="M3993 1695 c-53 -24 -53 -24 -53 -70 0 -25 3 -45 6 -45 3 0 30 15 60
32 50 30 54 35 54 70 0 21 -3 38 -7 38 -5 0 -32 -11 -60 -25z"/>
<path d="M3782 1258 c-18 -18 -15 -53 7 -79 16 -20 23 -22 38 -13 24 15 28 50
9 80 -18 26 -36 30 -54 12z"/>
<path d="M3274 1316 c-11 -28 1 -51 25 -51 32 0 49 28 32 49 -17 20 -50 21
-57 2z"/>
<path d="M3258 1184 c-15 -33 -1 -58 35 -62 34 -4 55 34 38 67 -17 30 -58 28
-73 -5z"/>
<path d="M3512 1318 c-26 -26 -7 -98 26 -98 41 0 55 47 26 88 -17 25 -34 28
-52 10z"/>
</g>
</svg>
